# xmcd CD database file
#
# Track frame offsets:
#	150
#	19785
#	34869
#	59559
#	93798
#	112942
#	133500
#	154916
#	168850
#
# Disc length: 2536 seconds
#
# Revision: 0
# Processed by: cddbd v1.5.2PL0 Copyright (c) Steve Scherf et al.
# Submitted via: CDex 1.51
#
DISCID=6909e609
DTITLE=The Anthea Jewels Band - Blues, Soul and Rock 'n' Roll
DYEAR=2019
DGENRE=Blues
TTITLE0=The Anthea Jewels Band - Rock Me Baby
TTITLE1=The Anthea Jewels Band - Blues Is My Business
TTITLE2=The Anthea Jewels Band - I Smell Trouble
TTITLE3=The Anthea Jewels Band - Ball and Chain
TTITLE4=The Anthea Jewels Band - You Got Me Runnin' (Baby What You Want Me to Do)
TTITLE5=The Anthea Jewels Band - Dust My Broom
TTITLE6=The Anthea Jewels Band - You're Still My Baby
TTITLE7=The Anthea Jewels Band - Baby I Love You
TTITLE8=The Anthea Jewels Band - Crazy About You Baby
EXTD=YEAR: 2019
EXTT0=
EXTT1=
EXTT2=
EXTT3=
EXTT4=
EXTT5=
EXTT6=
EXTT7=
EXTT8=
PLAYORDER=
